<mxfile host="app.diagrams.net" agent="Mozilla/5.0 (Macintosh; Intel Mac OS X 10_15_7) AppleWebKit/605.1.15 (KHTML, like Gecko) Version/18.1 Safari/605.1.15" version="24.7.17">
  <diagram name="Page-1" id="98vVVWF37vrK4GoryeR4">
    <mxGraphModel dx="1528" dy="989" grid="1" gridSize="10" guides="1" tooltips="1" connect="1" arrows="1" fold="1" page="1" pageScale="1" pageWidth="1169" pageHeight="827" math="0" shadow="0">
      <root>
        <mxCell id="0" />
        <mxCell id="1" parent="0" />
        <mxCell id="DgQnRbD3PJ5q2--DKHUV-1" value="EEETWV" style="strokeWidth=1;shadow=0;dashed=0;align=center;html=1;shape=mxgraph.mockup.containers.window;align=left;verticalAlign=top;spacingLeft=8;strokeColor2=#008cff;strokeColor3=#c4c4c4;fontColor=#666666;mainText=;fontSize=17;labelBackgroundColor=none;whiteSpace=wrap;container=0;movable=1;resizable=1;rotatable=1;deletable=1;editable=1;locked=0;connectable=1;" parent="1" vertex="1">
          <mxGeometry x="20" y="19.999999999999943" width="1120" height="780" as="geometry" />
        </mxCell>
        <mxCell id="DgQnRbD3PJ5q2--DKHUV-254" value="" style="swimlane;shape=mxgraph.bootstrap.anchor;strokeColor=#666666;fillColor=#ffffff;fontColor=#666666;fontStyle=0;childLayout=stackLayout;horizontal=1;startSize=0;horizontalStack=0;resizeParent=1;resizeParentMax=0;resizeLast=0;collapsible=0;marginBottom=0;whiteSpace=wrap;html=1;movable=1;resizable=1;rotatable=1;deletable=1;editable=1;locked=0;connectable=1;" parent="1" vertex="1">
          <mxGeometry x="20" y="50" width="120" height="150" as="geometry" />
        </mxCell>
        <mxCell id="DgQnRbD3PJ5q2--DKHUV-255" value="Real-Time" style="text;align=center;verticalAlign=middle;spacingLeft=10;spacingRight=10;overflow=hidden;points=[[0,0.5],[1,0.5]];portConstraint=eastwest;rotatable=1;whiteSpace=wrap;html=1;shape=mxgraph.mockup.topButton;rSize=10;fontSize=17;fontStyle=1;movable=1;resizable=1;deletable=1;editable=1;locked=0;connectable=1;fontColor=#666666;strokeColor=default;" parent="DgQnRbD3PJ5q2--DKHUV-254" vertex="1">
          <mxGeometry width="120" height="50" as="geometry" />
        </mxCell>
        <mxCell id="DgQnRbD3PJ5q2--DKHUV-256" value="Past EQs" style="text;strokeColor=inherit;align=center;verticalAlign=middle;spacingLeft=10;spacingRight=10;overflow=hidden;points=[[0,0.5],[1,0.5]];portConstraint=eastwest;rotatable=1;whiteSpace=wrap;html=1;rSize=5;fillColor=inherit;fontColor=inherit;fontSize=17;fontStyle=1;movable=1;resizable=1;deletable=1;editable=1;locked=0;connectable=1;" parent="DgQnRbD3PJ5q2--DKHUV-254" vertex="1">
          <mxGeometry y="50" width="120" height="50" as="geometry" />
        </mxCell>
        <mxCell id="DgQnRbD3PJ5q2--DKHUV-258" value="Settings" style="text;strokeColor=#018cff;align=center;verticalAlign=middle;spacingLeft=10;spacingRight=10;overflow=hidden;points=[[0,0.5],[1,0.5]];portConstraint=eastwest;rotatable=1;whiteSpace=wrap;html=1;shape=mxgraph.mockup.bottomButton;rSize=10;fillColor=#018cff;fontSize=17;fontStyle=1;movable=1;resizable=1;deletable=1;editable=1;locked=0;connectable=1;fontColor=#666666;" parent="DgQnRbD3PJ5q2--DKHUV-254" vertex="1">
          <mxGeometry y="100" width="120" height="50" as="geometry" />
        </mxCell>
        <mxCell id="8AwroO8tcI-AaHh53qAl-2" value="" style="verticalLabelPosition=bottom;shadow=0;dashed=0;align=center;html=1;verticalAlign=top;strokeWidth=1;shape=mxgraph.mockup.markup.line;strokeColor=#999999;direction=north;" vertex="1" parent="1">
          <mxGeometry x="135" y="50" width="10" height="750" as="geometry" />
        </mxCell>
        <mxCell id="8AwroO8tcI-AaHh53qAl-8" value="" style="verticalLabelPosition=bottom;shadow=0;dashed=0;align=center;html=1;verticalAlign=top;strokeWidth=1;shape=mxgraph.mockup.navigation.scrollBar;strokeColor=#999999;barPos=100;fillColor2=#99ddff;strokeColor2=none;direction=north;" vertex="1" parent="1">
          <mxGeometry x="1120" y="50" width="20" height="750" as="geometry" />
        </mxCell>
        <mxCell id="8AwroO8tcI-AaHh53qAl-9" value="&lt;b&gt;DM-D.S.S. Data Service&lt;/b&gt;&lt;div&gt;&lt;b&gt;&lt;br&gt;&lt;/b&gt;&lt;/div&gt;&lt;div&gt;API Key:&lt;/div&gt;&lt;div&gt;&lt;br&gt;&lt;/div&gt;&lt;div&gt;&lt;br&gt;&lt;/div&gt;&lt;div&gt;&lt;br&gt;&lt;/div&gt;&lt;div&gt;WebSocket Connection List:&lt;/div&gt;&lt;div&gt;&lt;b&gt;&lt;br&gt;&lt;/b&gt;&lt;/div&gt;&lt;div&gt;&lt;b&gt;&lt;br&gt;&lt;/b&gt;&lt;/div&gt;&lt;div&gt;&lt;b&gt;&lt;br&gt;&lt;/b&gt;&lt;/div&gt;&lt;div&gt;&lt;b&gt;&lt;br&gt;&lt;/b&gt;&lt;/div&gt;&lt;div&gt;&lt;b&gt;&lt;br&gt;&lt;/b&gt;&lt;/div&gt;&lt;div&gt;&lt;b&gt;&lt;br&gt;&lt;/b&gt;&lt;/div&gt;&lt;div&gt;&lt;b&gt;&lt;br&gt;&lt;/b&gt;&lt;/div&gt;&lt;div&gt;&lt;b&gt;&lt;br&gt;&lt;/b&gt;&lt;/div&gt;&lt;div&gt;&lt;b&gt;&lt;br&gt;&lt;/b&gt;&lt;/div&gt;&lt;div&gt;&lt;br&gt;&lt;/div&gt;&lt;div&gt;&lt;b&gt;Real-Time Colouring&amp;nbsp;&lt;/b&gt;Colour Type:&lt;/div&gt;&lt;div&gt;&lt;br&gt;&lt;/div&gt;&lt;div&gt;&lt;b&gt;Colour Scheme&lt;/b&gt;&lt;/div&gt;&lt;div&gt;&lt;b&gt;&lt;br&gt;&lt;/b&gt;&lt;/div&gt;&lt;div&gt;Scheme:&amp;nbsp;&lt;/div&gt;&lt;div&gt;&lt;br&gt;&lt;/div&gt;&lt;div&gt;Preview:&lt;/div&gt;&lt;div&gt;&lt;br&gt;&lt;/div&gt;&lt;div&gt;&lt;b&gt;Sound Files&lt;/b&gt;&lt;/div&gt;&lt;div&gt;&lt;b&gt;&lt;br&gt;&lt;/b&gt;&lt;/div&gt;&lt;div&gt;Type of Sound:&lt;/div&gt;&lt;div&gt;&lt;br&gt;&lt;/div&gt;&lt;div&gt;Choose File:&lt;/div&gt;&lt;div&gt;&lt;br&gt;&lt;/div&gt;&lt;div&gt;Preview:&lt;/div&gt;&lt;div&gt;&lt;br&gt;&lt;/div&gt;&lt;div&gt;&lt;b&gt;User-Defined Point&lt;/b&gt;&amp;nbsp;&lt;/div&gt;" style="text;spacingTop=-5;whiteSpace=wrap;html=1;align=left;fontSize=17;fontFamily=Helvetica;fillColor=none;strokeColor=none;fontColor=#666666;" vertex="1" parent="1">
          <mxGeometry x="159" y="59" width="960" height="740" as="geometry" />
        </mxCell>
        <mxCell id="8AwroO8tcI-AaHh53qAl-10" value="********************************" style="strokeWidth=1;shadow=0;dashed=0;align=center;html=1;shape=mxgraph.mockup.forms.pwField;strokeColor=#999999;mainText=;align=left;fontColor=#666666;fontSize=17;spacingLeft=3;" vertex="1" parent="1">
          <mxGeometry x="250" y="100" width="240" height="30" as="geometry" />
        </mxCell>
        <mxCell id="8AwroO8tcI-AaHh53qAl-12" value="OAuth 2.0 Login" style="strokeWidth=1;shadow=0;dashed=0;align=center;html=1;shape=mxgraph.mockup.buttons.button;strokeColor=#666666;fontColor=#333333;mainText=;buttonStyle=round;fontSize=17;fontStyle=1;fillColor=#f5f5f5;whiteSpace=wrap;" vertex="1" parent="1">
          <mxGeometry x="160" y="140" width="150" height="30" as="geometry" />
        </mxCell>
        <mxCell id="8AwroO8tcI-AaHh53qAl-14" value="Measured Intensity" style="strokeWidth=1;shadow=0;dashed=0;align=center;html=1;shape=mxgraph.mockup.forms.comboBox;strokeColor=#999999;fillColor=#ddeeff;align=left;fillColor2=#aaddff;mainText=;fontColor=#666666;fontSize=17;spacingLeft=3;" vertex="1" parent="1">
          <mxGeometry x="440" y="396" width="190" height="30" as="geometry" />
        </mxCell>
        <mxCell id="8AwroO8tcI-AaHh53qAl-15" value="&lt;div&gt;Disconnect from WebSocket&lt;/div&gt;" style="strokeWidth=1;shadow=0;dashed=0;align=center;html=1;shape=mxgraph.mockup.buttons.button;strokeColor=#666666;fontColor=#333333;mainText=;buttonStyle=round;fontSize=17;fontStyle=1;fillColor=#f5f5f5;whiteSpace=wrap;" vertex="1" parent="1">
          <mxGeometry x="330" y="140" width="250" height="30" as="geometry" />
        </mxCell>
        <mxCell id="8AwroO8tcI-AaHh53qAl-26" value="" style="verticalLabelPosition=bottom;shadow=0;dashed=0;align=center;html=1;verticalAlign=top;strokeWidth=1;shape=mxgraph.mockup.navigation.scrollBar;strokeColor=#999999;barPos=100;fillColor2=#99ddff;strokeColor2=none;direction=north;" vertex="1" parent="1">
          <mxGeometry x="1090" y="209" width="20" height="181" as="geometry" />
        </mxCell>
        <mxCell id="8AwroO8tcI-AaHh53qAl-28" value="" style="shape=table;html=1;whiteSpace=wrap;startSize=0;container=1;collapsible=0;childLayout=tableLayout;strokeWidth=2;fontSize=17;" vertex="1" parent="1">
          <mxGeometry x="150" y="210" width="940" height="180" as="geometry" />
        </mxCell>
        <mxCell id="8AwroO8tcI-AaHh53qAl-29" value="" style="shape=tableRow;horizontal=0;startSize=0;swimlaneHead=0;swimlaneBody=0;top=0;left=0;bottom=0;right=0;collapsible=0;dropTarget=0;fillColor=none;points=[[0,0.5],[1,0.5]];portConstraint=eastwest;fontSize=17;" vertex="1" parent="8AwroO8tcI-AaHh53qAl-28">
          <mxGeometry width="940" height="30" as="geometry" />
        </mxCell>
        <mxCell id="8AwroO8tcI-AaHh53qAl-30" value="Connection ID" style="shape=partialRectangle;html=1;whiteSpace=wrap;connectable=0;fillColor=none;top=0;left=0;bottom=0;right=0;overflow=hidden;fontStyle=1;fontSize=17;" vertex="1" parent="8AwroO8tcI-AaHh53qAl-29">
          <mxGeometry width="235" height="30" as="geometry">
            <mxRectangle width="235" height="30" as="alternateBounds" />
          </mxGeometry>
        </mxCell>
        <mxCell id="8AwroO8tcI-AaHh53qAl-31" value="Application Name" style="shape=partialRectangle;html=1;whiteSpace=wrap;connectable=0;fillColor=none;top=0;left=0;bottom=0;right=0;overflow=hidden;fontStyle=1;fontSize=17;" vertex="1" parent="8AwroO8tcI-AaHh53qAl-29">
          <mxGeometry x="235" width="235" height="30" as="geometry">
            <mxRectangle width="235" height="30" as="alternateBounds" />
          </mxGeometry>
        </mxCell>
        <mxCell id="8AwroO8tcI-AaHh53qAl-38" value="Connection Time" style="shape=partialRectangle;html=1;whiteSpace=wrap;connectable=0;fillColor=none;top=0;left=0;bottom=0;right=0;overflow=hidden;fontStyle=1;fontSize=17;" vertex="1" parent="8AwroO8tcI-AaHh53qAl-29">
          <mxGeometry x="470" width="235" height="30" as="geometry">
            <mxRectangle width="235" height="30" as="alternateBounds" />
          </mxGeometry>
        </mxCell>
        <mxCell id="8AwroO8tcI-AaHh53qAl-41" value="Disconnect" style="shape=partialRectangle;html=1;whiteSpace=wrap;connectable=0;fillColor=none;top=0;left=0;bottom=0;right=0;overflow=hidden;fontStyle=1;fontSize=17;" vertex="1" parent="8AwroO8tcI-AaHh53qAl-29">
          <mxGeometry x="705" width="235" height="30" as="geometry">
            <mxRectangle width="235" height="30" as="alternateBounds" />
          </mxGeometry>
        </mxCell>
        <mxCell id="8AwroO8tcI-AaHh53qAl-32" value="" style="shape=tableRow;horizontal=0;startSize=0;swimlaneHead=0;swimlaneBody=0;top=0;left=0;bottom=0;right=0;collapsible=0;dropTarget=0;fillColor=none;points=[[0,0.5],[1,0.5]];portConstraint=eastwest;fontSize=17;" vertex="1" parent="8AwroO8tcI-AaHh53qAl-28">
          <mxGeometry y="30" width="940" height="31" as="geometry" />
        </mxCell>
        <mxCell id="8AwroO8tcI-AaHh53qAl-33" value="4582731" style="shape=partialRectangle;html=1;whiteSpace=wrap;connectable=0;fillColor=none;top=0;left=0;bottom=0;right=0;overflow=hidden;fontSize=17;" vertex="1" parent="8AwroO8tcI-AaHh53qAl-32">
          <mxGeometry width="235" height="31" as="geometry">
            <mxRectangle width="235" height="31" as="alternateBounds" />
          </mxGeometry>
        </mxCell>
        <mxCell id="8AwroO8tcI-AaHh53qAl-34" value="EEETWV-beta0.1" style="shape=partialRectangle;html=1;whiteSpace=wrap;connectable=0;fillColor=none;top=0;left=0;bottom=0;right=0;overflow=hidden;fontSize=17;" vertex="1" parent="8AwroO8tcI-AaHh53qAl-32">
          <mxGeometry x="235" width="235" height="31" as="geometry">
            <mxRectangle width="235" height="31" as="alternateBounds" />
          </mxGeometry>
        </mxCell>
        <mxCell id="8AwroO8tcI-AaHh53qAl-39" value="2024-10-14 17:52:37" style="shape=partialRectangle;html=1;whiteSpace=wrap;connectable=0;fillColor=none;top=0;left=0;bottom=0;right=0;overflow=hidden;fontSize=17;" vertex="1" parent="8AwroO8tcI-AaHh53qAl-32">
          <mxGeometry x="470" width="235" height="31" as="geometry">
            <mxRectangle width="235" height="31" as="alternateBounds" />
          </mxGeometry>
        </mxCell>
        <mxCell id="8AwroO8tcI-AaHh53qAl-42" style="shape=partialRectangle;html=1;whiteSpace=wrap;connectable=0;fillColor=none;top=0;left=0;bottom=0;right=0;overflow=hidden;fontSize=17;" vertex="1" parent="8AwroO8tcI-AaHh53qAl-32">
          <mxGeometry x="705" width="235" height="31" as="geometry">
            <mxRectangle width="235" height="31" as="alternateBounds" />
          </mxGeometry>
        </mxCell>
        <mxCell id="8AwroO8tcI-AaHh53qAl-35" value="" style="shape=tableRow;horizontal=0;startSize=0;swimlaneHead=0;swimlaneBody=0;top=0;left=0;bottom=0;right=0;collapsible=0;dropTarget=0;fillColor=none;points=[[0,0.5],[1,0.5]];portConstraint=eastwest;fontSize=17;" vertex="1" parent="8AwroO8tcI-AaHh53qAl-28">
          <mxGeometry y="61" width="940" height="29" as="geometry" />
        </mxCell>
        <mxCell id="8AwroO8tcI-AaHh53qAl-36" value="4768321" style="shape=partialRectangle;html=1;whiteSpace=wrap;connectable=0;fillColor=none;top=0;left=0;bottom=0;right=0;overflow=hidden;fontSize=17;" vertex="1" parent="8AwroO8tcI-AaHh53qAl-35">
          <mxGeometry width="235" height="29" as="geometry">
            <mxRectangle width="235" height="29" as="alternateBounds" />
          </mxGeometry>
        </mxCell>
        <mxCell id="8AwroO8tcI-AaHh53qAl-37" value="JQuake-1.8.5" style="shape=partialRectangle;html=1;whiteSpace=wrap;connectable=0;fillColor=none;top=0;left=0;bottom=0;right=0;overflow=hidden;fontSize=17;" vertex="1" parent="8AwroO8tcI-AaHh53qAl-35">
          <mxGeometry x="235" width="235" height="29" as="geometry">
            <mxRectangle width="235" height="29" as="alternateBounds" />
          </mxGeometry>
        </mxCell>
        <mxCell id="8AwroO8tcI-AaHh53qAl-40" value="2024-10-14 14:05:15" style="shape=partialRectangle;html=1;whiteSpace=wrap;connectable=0;fillColor=none;top=0;left=0;bottom=0;right=0;overflow=hidden;fontSize=17;" vertex="1" parent="8AwroO8tcI-AaHh53qAl-35">
          <mxGeometry x="470" width="235" height="29" as="geometry">
            <mxRectangle width="235" height="29" as="alternateBounds" />
          </mxGeometry>
        </mxCell>
        <mxCell id="8AwroO8tcI-AaHh53qAl-43" style="shape=partialRectangle;html=1;whiteSpace=wrap;connectable=0;fillColor=none;top=0;left=0;bottom=0;right=0;overflow=hidden;fontSize=17;" vertex="1" parent="8AwroO8tcI-AaHh53qAl-35">
          <mxGeometry x="705" width="235" height="29" as="geometry">
            <mxRectangle width="235" height="29" as="alternateBounds" />
          </mxGeometry>
        </mxCell>
        <mxCell id="8AwroO8tcI-AaHh53qAl-44" style="shape=tableRow;horizontal=0;startSize=0;swimlaneHead=0;swimlaneBody=0;top=0;left=0;bottom=0;right=0;collapsible=0;dropTarget=0;fillColor=none;points=[[0,0.5],[1,0.5]];portConstraint=eastwest;fontSize=17;" vertex="1" parent="8AwroO8tcI-AaHh53qAl-28">
          <mxGeometry y="90" width="940" height="30" as="geometry" />
        </mxCell>
        <mxCell id="8AwroO8tcI-AaHh53qAl-45" value="(Empty)" style="shape=partialRectangle;html=1;whiteSpace=wrap;connectable=0;fillColor=none;top=0;left=0;bottom=0;right=0;overflow=hidden;fontSize=17;" vertex="1" parent="8AwroO8tcI-AaHh53qAl-44">
          <mxGeometry width="235" height="30" as="geometry">
            <mxRectangle width="235" height="30" as="alternateBounds" />
          </mxGeometry>
        </mxCell>
        <mxCell id="8AwroO8tcI-AaHh53qAl-46" value="(Empty)" style="shape=partialRectangle;html=1;whiteSpace=wrap;connectable=0;fillColor=none;top=0;left=0;bottom=0;right=0;overflow=hidden;fontSize=17;" vertex="1" parent="8AwroO8tcI-AaHh53qAl-44">
          <mxGeometry x="235" width="235" height="30" as="geometry">
            <mxRectangle width="235" height="30" as="alternateBounds" />
          </mxGeometry>
        </mxCell>
        <mxCell id="8AwroO8tcI-AaHh53qAl-47" value="(Empty)" style="shape=partialRectangle;html=1;whiteSpace=wrap;connectable=0;fillColor=none;top=0;left=0;bottom=0;right=0;overflow=hidden;fontSize=17;" vertex="1" parent="8AwroO8tcI-AaHh53qAl-44">
          <mxGeometry x="470" width="235" height="30" as="geometry">
            <mxRectangle width="235" height="30" as="alternateBounds" />
          </mxGeometry>
        </mxCell>
        <mxCell id="8AwroO8tcI-AaHh53qAl-48" value="(Empty)" style="shape=partialRectangle;html=1;whiteSpace=wrap;connectable=0;fillColor=none;top=0;left=0;bottom=0;right=0;overflow=hidden;fontSize=17;" vertex="1" parent="8AwroO8tcI-AaHh53qAl-44">
          <mxGeometry x="705" width="235" height="30" as="geometry">
            <mxRectangle width="235" height="30" as="alternateBounds" />
          </mxGeometry>
        </mxCell>
        <mxCell id="8AwroO8tcI-AaHh53qAl-49" style="shape=tableRow;horizontal=0;startSize=0;swimlaneHead=0;swimlaneBody=0;top=0;left=0;bottom=0;right=0;collapsible=0;dropTarget=0;fillColor=none;points=[[0,0.5],[1,0.5]];portConstraint=eastwest;fontSize=17;" vertex="1" parent="8AwroO8tcI-AaHh53qAl-28">
          <mxGeometry y="120" width="940" height="30" as="geometry" />
        </mxCell>
        <mxCell id="8AwroO8tcI-AaHh53qAl-50" value="(Empty)" style="shape=partialRectangle;html=1;whiteSpace=wrap;connectable=0;fillColor=none;top=0;left=0;bottom=0;right=0;overflow=hidden;fontSize=17;" vertex="1" parent="8AwroO8tcI-AaHh53qAl-49">
          <mxGeometry width="235" height="30" as="geometry">
            <mxRectangle width="235" height="30" as="alternateBounds" />
          </mxGeometry>
        </mxCell>
        <mxCell id="8AwroO8tcI-AaHh53qAl-51" value="(Empty)" style="shape=partialRectangle;html=1;whiteSpace=wrap;connectable=0;fillColor=none;top=0;left=0;bottom=0;right=0;overflow=hidden;fontSize=17;" vertex="1" parent="8AwroO8tcI-AaHh53qAl-49">
          <mxGeometry x="235" width="235" height="30" as="geometry">
            <mxRectangle width="235" height="30" as="alternateBounds" />
          </mxGeometry>
        </mxCell>
        <mxCell id="8AwroO8tcI-AaHh53qAl-52" value="(Empty)" style="shape=partialRectangle;html=1;whiteSpace=wrap;connectable=0;fillColor=none;top=0;left=0;bottom=0;right=0;overflow=hidden;fontSize=17;" vertex="1" parent="8AwroO8tcI-AaHh53qAl-49">
          <mxGeometry x="470" width="235" height="30" as="geometry">
            <mxRectangle width="235" height="30" as="alternateBounds" />
          </mxGeometry>
        </mxCell>
        <mxCell id="8AwroO8tcI-AaHh53qAl-53" value="(Empty)" style="shape=partialRectangle;html=1;whiteSpace=wrap;connectable=0;fillColor=none;top=0;left=0;bottom=0;right=0;overflow=hidden;fontSize=17;" vertex="1" parent="8AwroO8tcI-AaHh53qAl-49">
          <mxGeometry x="705" width="235" height="30" as="geometry">
            <mxRectangle width="235" height="30" as="alternateBounds" />
          </mxGeometry>
        </mxCell>
        <mxCell id="8AwroO8tcI-AaHh53qAl-54" style="shape=tableRow;horizontal=0;startSize=0;swimlaneHead=0;swimlaneBody=0;top=0;left=0;bottom=0;right=0;collapsible=0;dropTarget=0;fillColor=none;points=[[0,0.5],[1,0.5]];portConstraint=eastwest;fontSize=17;" vertex="1" parent="8AwroO8tcI-AaHh53qAl-28">
          <mxGeometry y="150" width="940" height="30" as="geometry" />
        </mxCell>
        <mxCell id="8AwroO8tcI-AaHh53qAl-55" value="(Empty)" style="shape=partialRectangle;html=1;whiteSpace=wrap;connectable=0;fillColor=none;top=0;left=0;bottom=0;right=0;overflow=hidden;fontSize=17;" vertex="1" parent="8AwroO8tcI-AaHh53qAl-54">
          <mxGeometry width="235" height="30" as="geometry">
            <mxRectangle width="235" height="30" as="alternateBounds" />
          </mxGeometry>
        </mxCell>
        <mxCell id="8AwroO8tcI-AaHh53qAl-56" value="(Empty)" style="shape=partialRectangle;html=1;whiteSpace=wrap;connectable=0;fillColor=none;top=0;left=0;bottom=0;right=0;overflow=hidden;fontSize=17;" vertex="1" parent="8AwroO8tcI-AaHh53qAl-54">
          <mxGeometry x="235" width="235" height="30" as="geometry">
            <mxRectangle width="235" height="30" as="alternateBounds" />
          </mxGeometry>
        </mxCell>
        <mxCell id="8AwroO8tcI-AaHh53qAl-57" value="(Empty)" style="shape=partialRectangle;html=1;whiteSpace=wrap;connectable=0;fillColor=none;top=0;left=0;bottom=0;right=0;overflow=hidden;fontSize=17;" vertex="1" parent="8AwroO8tcI-AaHh53qAl-54">
          <mxGeometry x="470" width="235" height="30" as="geometry">
            <mxRectangle width="235" height="30" as="alternateBounds" />
          </mxGeometry>
        </mxCell>
        <mxCell id="8AwroO8tcI-AaHh53qAl-58" value="(Empty)" style="shape=partialRectangle;html=1;whiteSpace=wrap;connectable=0;fillColor=none;top=0;left=0;bottom=0;right=0;overflow=hidden;fontSize=17;" vertex="1" parent="8AwroO8tcI-AaHh53qAl-54">
          <mxGeometry x="705" width="235" height="30" as="geometry">
            <mxRectangle width="235" height="30" as="alternateBounds" />
          </mxGeometry>
        </mxCell>
        <mxCell id="8AwroO8tcI-AaHh53qAl-59" value="&lt;div&gt;Refresh&lt;/div&gt;" style="strokeWidth=1;shadow=0;dashed=0;align=center;html=1;shape=mxgraph.mockup.buttons.button;strokeColor=#666666;fontColor=#333333;mainText=;buttonStyle=round;fontSize=17;fontStyle=1;fillColor=#f5f5f5;whiteSpace=wrap;" vertex="1" parent="1">
          <mxGeometry x="390" y="177" width="80" height="30" as="geometry" />
        </mxCell>
        <mxCell id="8AwroO8tcI-AaHh53qAl-60" value="&lt;div&gt;Disconnect&lt;/div&gt;" style="strokeWidth=1;shadow=0;dashed=0;align=center;html=1;shape=mxgraph.mockup.buttons.button;strokeColor=#666666;fontColor=#333333;mainText=;buttonStyle=round;fontSize=17;fontStyle=1;fillColor=#f5f5f5;whiteSpace=wrap;" vertex="1" parent="1">
          <mxGeometry x="910" y="240" width="120" height="30" as="geometry" />
        </mxCell>
        <mxCell id="8AwroO8tcI-AaHh53qAl-61" value="&lt;div&gt;Disconnect&lt;/div&gt;" style="strokeWidth=1;shadow=0;dashed=0;align=center;html=1;shape=mxgraph.mockup.buttons.button;strokeColor=#666666;fontColor=#333333;mainText=;buttonStyle=round;fontSize=17;fontStyle=1;fillColor=#f5f5f5;whiteSpace=wrap;" vertex="1" parent="1">
          <mxGeometry x="910" y="270" width="120" height="30" as="geometry" />
        </mxCell>
        <mxCell id="8AwroO8tcI-AaHh53qAl-62" value="Default" style="strokeWidth=1;shadow=0;dashed=0;align=center;html=1;shape=mxgraph.mockup.forms.comboBox;strokeColor=#999999;fillColor=#ddeeff;align=left;fillColor2=#aaddff;mainText=;fontColor=#666666;fontSize=17;spacingLeft=3;" vertex="1" parent="1">
          <mxGeometry x="240" y="477" width="190" height="30" as="geometry" />
        </mxCell>
        <mxCell id="8AwroO8tcI-AaHh53qAl-73" value="" style="group" vertex="1" connectable="0" parent="1">
          <mxGeometry x="240" y="518" width="270" height="30" as="geometry" />
        </mxCell>
        <mxCell id="8AwroO8tcI-AaHh53qAl-63" value="1" style="strokeWidth=1;shadow=0;dashed=0;align=center;html=1;shape=mxgraph.mockup.text.textBox;fontColor=#333333;align=left;fontSize=17;spacingLeft=4;spacingTop=-3;whiteSpace=wrap;strokeColor=#666666;mainText=;fillColor=#f5f5f5;" vertex="1" parent="8AwroO8tcI-AaHh53qAl-73">
          <mxGeometry width="30" height="30" as="geometry" />
        </mxCell>
        <mxCell id="8AwroO8tcI-AaHh53qAl-64" value="2" style="strokeWidth=1;shadow=0;dashed=0;align=center;html=1;shape=mxgraph.mockup.text.textBox;align=left;fontSize=17;spacingLeft=4;spacingTop=-3;whiteSpace=wrap;strokeColor=#6c8ebf;mainText=;fillColor=#dae8fc;" vertex="1" parent="8AwroO8tcI-AaHh53qAl-73">
          <mxGeometry x="30" width="30" height="30" as="geometry" />
        </mxCell>
        <mxCell id="8AwroO8tcI-AaHh53qAl-65" value="3" style="strokeWidth=1;shadow=0;dashed=0;align=center;html=1;shape=mxgraph.mockup.text.textBox;align=left;fontSize=17;spacingLeft=4;spacingTop=-3;whiteSpace=wrap;strokeColor=#82b366;mainText=;fillColor=#d5e8d4;" vertex="1" parent="8AwroO8tcI-AaHh53qAl-73">
          <mxGeometry x="60" width="30" height="30" as="geometry" />
        </mxCell>
        <mxCell id="8AwroO8tcI-AaHh53qAl-66" value="4" style="strokeWidth=1;shadow=0;dashed=0;align=center;html=1;shape=mxgraph.mockup.text.textBox;align=left;fontSize=17;spacingLeft=4;spacingTop=-3;whiteSpace=wrap;strokeColor=#d6b656;mainText=;fillColor=#fff2cc;" vertex="1" parent="8AwroO8tcI-AaHh53qAl-73">
          <mxGeometry x="90" width="30" height="30" as="geometry" />
        </mxCell>
        <mxCell id="8AwroO8tcI-AaHh53qAl-67" value="5-" style="strokeWidth=1;shadow=0;dashed=0;align=center;html=1;shape=mxgraph.mockup.text.textBox;align=left;fontSize=17;spacingLeft=4;spacingTop=-3;whiteSpace=wrap;strokeColor=#d79b00;mainText=;fillColor=#ffe6cc;" vertex="1" parent="8AwroO8tcI-AaHh53qAl-73">
          <mxGeometry x="120" width="30" height="30" as="geometry" />
        </mxCell>
        <mxCell id="8AwroO8tcI-AaHh53qAl-68" value="5+" style="strokeWidth=1;shadow=0;dashed=0;align=center;html=1;shape=mxgraph.mockup.text.textBox;align=left;fontSize=17;spacingLeft=4;spacingTop=-3;whiteSpace=wrap;strokeColor=#d79b00;mainText=;fillColor=#ffe6cc;" vertex="1" parent="8AwroO8tcI-AaHh53qAl-73">
          <mxGeometry x="150" width="30" height="30" as="geometry" />
        </mxCell>
        <mxCell id="8AwroO8tcI-AaHh53qAl-69" value="6-" style="strokeWidth=1;shadow=0;dashed=0;align=center;html=1;shape=mxgraph.mockup.text.textBox;align=left;fontSize=17;spacingLeft=4;spacingTop=-3;whiteSpace=wrap;strokeColor=#b85450;mainText=;fillColor=#f8cecc;" vertex="1" parent="8AwroO8tcI-AaHh53qAl-73">
          <mxGeometry x="180" width="30" height="30" as="geometry" />
        </mxCell>
        <mxCell id="8AwroO8tcI-AaHh53qAl-70" value="6+" style="strokeWidth=1;shadow=0;dashed=0;align=center;html=1;shape=mxgraph.mockup.text.textBox;align=left;fontSize=17;spacingLeft=4;spacingTop=-3;whiteSpace=wrap;strokeColor=#b85450;mainText=;fillColor=#f8cecc;" vertex="1" parent="8AwroO8tcI-AaHh53qAl-73">
          <mxGeometry x="210" width="30" height="30" as="geometry" />
        </mxCell>
        <mxCell id="8AwroO8tcI-AaHh53qAl-71" value="7" style="strokeWidth=1;shadow=0;dashed=0;align=center;html=1;shape=mxgraph.mockup.text.textBox;align=left;fontSize=17;spacingLeft=4;spacingTop=-3;whiteSpace=wrap;strokeColor=#9673a6;mainText=;fillColor=#e1d5e7;" vertex="1" parent="8AwroO8tcI-AaHh53qAl-73">
          <mxGeometry x="240" width="30" height="30" as="geometry" />
        </mxCell>
        <mxCell id="8AwroO8tcI-AaHh53qAl-75" value="Sendai, Miyagi" style="strokeWidth=1;shadow=0;dashed=0;align=center;html=1;shape=mxgraph.mockup.forms.comboBox;strokeColor=#999999;fillColor=#ddeeff;align=left;fillColor2=#aaddff;mainText=;fontColor=#666666;fontSize=17;spacingLeft=3;" vertex="1" parent="1">
          <mxGeometry x="330" y="715" width="150" height="30" as="geometry" />
        </mxCell>
        <mxCell id="8AwroO8tcI-AaHh53qAl-76" value="EEW - First" style="strokeWidth=1;shadow=0;dashed=0;align=center;html=1;shape=mxgraph.mockup.forms.comboBox;strokeColor=#999999;fillColor=#ddeeff;align=left;fillColor2=#aaddff;mainText=;fontColor=#666666;fontSize=17;spacingLeft=3;" vertex="1" parent="1">
          <mxGeometry x="290" y="596" width="150" height="30" as="geometry" />
        </mxCell>
        <mxCell id="8AwroO8tcI-AaHh53qAl-80" value="&lt;div&gt;Play&lt;/div&gt;" style="strokeWidth=1;shadow=0;dashed=0;align=center;html=1;shape=mxgraph.mockup.buttons.button;strokeColor=#666666;fontColor=#333333;mainText=;buttonStyle=round;fontSize=17;fontStyle=1;fillColor=#f5f5f5;whiteSpace=wrap;" vertex="1" parent="1">
          <mxGeometry x="233" y="677" width="57" height="30" as="geometry" />
        </mxCell>
        <mxCell id="8AwroO8tcI-AaHh53qAl-81" value="&lt;div&gt;C:/Users/Administrator/Music/EEW1.wav&lt;/div&gt;" style="strokeWidth=1;shadow=0;dashed=0;align=center;html=1;shape=mxgraph.mockup.buttons.button;strokeColor=#666666;fontColor=#333333;mainText=;buttonStyle=round;fontSize=17;fontStyle=1;fillColor=#f5f5f5;whiteSpace=wrap;" vertex="1" parent="1">
          <mxGeometry x="263" y="636" width="359" height="30" as="geometry" />
        </mxCell>
      </root>
    </mxGraphModel>
  </diagram>
</mxfile>
